<svg xmlns="http://www.w3.org/2000/svg" viewBox="0 0 152.62 155.76"><defs><style>.cls-1{fill:#fff;}</style></defs><g id="Layer_2" data-name="Layer 2"><g id="Layer_1-2" data-name="Layer 1"><path class="cls-1" d="M137.71,100.2a64.12,64.12,0,0,1-21,28.33.16.16,0,0,1-.23,0L23.87,14.26A.16.16,0,0,1,24,14H76.76a65,65,0,0,1,62.1,45,7.05,7.05,0,0,0,6.71,5h0a7,7,0,0,0,6.71-9.11A77.9,77.9,0,0,0,77.88,0H6A6,6,0,0,0,0,6V77.88a77.88,77.88,0,0,0,141.76,44.55,77.14,77.14,0,0,0,9.09-17.3,7,7,0,0,0-6.59-9.45h0A7,7,0,0,0,137.71,100.2ZM14,14ZM32,121.83a.16.16,0,0,1-.28.11A63.64,63.64,0,0,1,14,77.88V26.36a.16.16,0,0,1,.29-.1L31.94,48l0,.1Zm30.9,17.93a.16.16,0,0,1-.2.15,63.26,63.26,0,0,1-15.62-6.1l-.08-.14V67a.16.16,0,0,1,.29-.1L62.84,86.14l0,.1Zm40.48-3.32A63.45,63.45,0,0,1,78,141.76a.16.16,0,0,1-.16-.16V105.14a.16.16,0,0,1,.29-.1l25.25,31.14A.17.17,0,0,1,103.36,136.44Z"/></g></g></svg>